<mxfile host="app.diagrams.net" modified="2024-01-29T07:31:00.963Z" agent="Mozilla/5.0 (Windows NT 10.0; Win64; x64) AppleWebKit/537.36 (KHTML, like Gecko) Chrome/121.0.0.0 Safari/537.36 Edg/121.0.0.0" etag="m75H5l8iYiexT2GtFPpo" version="23.0.2" type="github" pages="7">
  <diagram name="BlockDiagram-all" id="97916047-d0de-89f5-080d-49f4d83e522f">
    <mxGraphModel dx="1001" dy="633" grid="1" gridSize="10" guides="1" tooltips="1" connect="1" arrows="1" fold="1" page="1" pageScale="1.5" pageWidth="1169" pageHeight="827" background="none" math="0" shadow="0">
      <root>
        <mxCell id="0" />
        <mxCell id="1" parent="0" />
        <mxCell id="3" value="EABS CPU Module Software" style="rounded=0;shadow=1;fontStyle=1;fontSize=14;align=left;verticalAlign=top;" parent="1" vertex="1">
          <mxGeometry x="380" y="140" width="460" height="320" as="geometry" />
        </mxCell>
        <mxCell id="2xnklOY3mkxwDWEgLXTY-56" value="H/W" style="rounded=0;shadow=1;fontStyle=1;fontSize=28;align=center;verticalAlign=middle;spacing=2;" parent="1" vertex="1">
          <mxGeometry x="380" y="460" width="460" height="70" as="geometry" />
        </mxCell>
        <mxCell id="2xnklOY3mkxwDWEgLXTY-57" value="SafeRTOS" style="rounded=0;shadow=1;fontStyle=1;fontSize=24;align=center;verticalAlign=middle;" parent="1" vertex="1">
          <mxGeometry x="390" y="340" width="250" height="110" as="geometry" />
        </mxCell>
        <mxCell id="2xnklOY3mkxwDWEgLXTY-58" value="Device Driver" style="rounded=0;shadow=1;fontStyle=1;fontSize=24;align=center;verticalAlign=middle;" parent="1" vertex="1">
          <mxGeometry x="650" y="340" width="180" height="110" as="geometry" />
        </mxCell>
        <mxCell id="2xnklOY3mkxwDWEgLXTY-59" value="EABS CPU Module Application" style="rounded=0;shadow=1;fontStyle=1;fontSize=14;align=center;verticalAlign=middle;" parent="1" vertex="1">
          <mxGeometry x="390" y="170" width="440" height="160" as="geometry" />
        </mxCell>
        <mxCell id="2xnklOY3mkxwDWEgLXTY-60" value="EABS I/O Module Software" style="rounded=0;shadow=1;fontStyle=1;fontSize=14;align=left;verticalAlign=top;" parent="1" vertex="1">
          <mxGeometry x="852" y="140" width="460" height="320" as="geometry" />
        </mxCell>
        <mxCell id="2xnklOY3mkxwDWEgLXTY-61" value="H/W" style="rounded=0;shadow=1;fontStyle=1;fontSize=28;align=center;verticalAlign=middle;spacing=2;fillColor=#f5f5f5;fontColor=#333333;strokeColor=#666666;" parent="1" vertex="1">
          <mxGeometry x="852" y="460" width="460" height="70" as="geometry" />
        </mxCell>
        <mxCell id="2xnklOY3mkxwDWEgLXTY-63" value="Device Driver" style="rounded=0;shadow=1;fontStyle=1;fontSize=24;align=center;verticalAlign=middle;" parent="1" vertex="1">
          <mxGeometry x="860" y="380" width="442" height="70" as="geometry" />
        </mxCell>
        <mxCell id="2xnklOY3mkxwDWEgLXTY-64" value="EABS I/O Module Application" style="rounded=0;shadow=1;fontStyle=1;fontSize=14;align=center;verticalAlign=middle;" parent="1" vertex="1">
          <mxGeometry x="862" y="170" width="440" height="200" as="geometry" />
        </mxCell>
        <mxCell id="Bs_QZ7SmaoqHRqGBBxqq-3" value="EABS CPU Module Software" style="rounded=0;shadow=1;fontStyle=1;fontSize=14;align=left;verticalAlign=top;" parent="1" vertex="1">
          <mxGeometry x="381" y="554" width="460" height="320" as="geometry" />
        </mxCell>
        <mxCell id="Bs_QZ7SmaoqHRqGBBxqq-4" value="H/W" style="rounded=0;shadow=1;fontStyle=1;fontSize=28;align=center;verticalAlign=middle;spacing=2;" parent="1" vertex="1">
          <mxGeometry x="381" y="874" width="460" height="70" as="geometry" />
        </mxCell>
        <mxCell id="Bs_QZ7SmaoqHRqGBBxqq-5" value="SafeRTOS" style="rounded=0;shadow=1;fontStyle=1;fontSize=24;align=center;verticalAlign=middle;" parent="1" vertex="1">
          <mxGeometry x="391" y="754" width="169" height="110" as="geometry" />
        </mxCell>
        <mxCell id="Bs_QZ7SmaoqHRqGBBxqq-6" value="Device Driver" style="rounded=0;shadow=1;fontStyle=1;fontSize=24;align=center;verticalAlign=middle;whiteSpace=wrap;" parent="1" vertex="1">
          <mxGeometry x="690" y="754" width="141" height="110" as="geometry" />
        </mxCell>
        <mxCell id="Bs_QZ7SmaoqHRqGBBxqq-7" value="EABS CPU Module Application" style="rounded=0;shadow=1;fontStyle=1;fontSize=14;align=center;verticalAlign=middle;" parent="1" vertex="1">
          <mxGeometry x="391" y="584" width="440" height="160" as="geometry" />
        </mxCell>
        <mxCell id="Bs_QZ7SmaoqHRqGBBxqq-8" value="EABS I/O Module Software" style="rounded=0;shadow=1;fontStyle=1;fontSize=14;align=left;verticalAlign=top;" parent="1" vertex="1">
          <mxGeometry x="853" y="554" width="460" height="320" as="geometry" />
        </mxCell>
        <mxCell id="Bs_QZ7SmaoqHRqGBBxqq-9" value="H/W" style="rounded=0;shadow=1;fontStyle=1;fontSize=28;align=center;verticalAlign=middle;spacing=2;fillColor=#f5f5f5;fontColor=#333333;strokeColor=#666666;" parent="1" vertex="1">
          <mxGeometry x="853" y="874" width="460" height="70" as="geometry" />
        </mxCell>
        <mxCell id="Bs_QZ7SmaoqHRqGBBxqq-10" value="Device Driver" style="rounded=0;shadow=1;fontStyle=1;fontSize=24;align=center;verticalAlign=middle;" parent="1" vertex="1">
          <mxGeometry x="861" y="794" width="442" height="70" as="geometry" />
        </mxCell>
        <mxCell id="Bs_QZ7SmaoqHRqGBBxqq-11" value="EABS I/O Module Application" style="rounded=0;shadow=1;fontStyle=1;fontSize=14;align=center;verticalAlign=middle;" parent="1" vertex="1">
          <mxGeometry x="863" y="584" width="440" height="200" as="geometry" />
        </mxCell>
        <mxCell id="Bs_QZ7SmaoqHRqGBBxqq-12" value="Self-Test Library" style="rounded=0;shadow=1;fontStyle=1;fontSize=24;align=center;verticalAlign=middle;whiteSpace=wrap;" parent="1" vertex="1">
          <mxGeometry x="570" y="754" width="110" height="110" as="geometry" />
        </mxCell>
      </root>
    </mxGraphModel>
  </diagram>
  <diagram id="455bVY7fYw622vmdx8sA" name="IO-Module-Block-Diagram">
    <mxGraphModel dx="171" dy="775" grid="1" gridSize="10" guides="1" tooltips="1" connect="1" arrows="1" fold="1" page="1" pageScale="1" pageWidth="827" pageHeight="1169" math="0" shadow="0">
      <root>
        <mxCell id="0" />
        <mxCell id="1" parent="0" />
        <mxCell id="_B_MI62m7lRFY5nyLYBk-1" value="EABS I/O Module Software" style="rounded=0;shadow=1;fontStyle=1;fontSize=14;align=left;verticalAlign=top;" parent="1" vertex="1">
          <mxGeometry x="1070" y="350" width="460" height="320" as="geometry" />
        </mxCell>
        <mxCell id="_B_MI62m7lRFY5nyLYBk-2" value="H/W" style="rounded=0;shadow=1;fontStyle=1;fontSize=28;align=center;verticalAlign=middle;spacing=2;fillColor=#f5f5f5;fontColor=#333333;strokeColor=#666666;" parent="1" vertex="1">
          <mxGeometry x="1070" y="670" width="460" height="70" as="geometry" />
        </mxCell>
        <mxCell id="_B_MI62m7lRFY5nyLYBk-3" value="Device Driver" style="rounded=0;shadow=1;fontStyle=1;fontSize=24;align=center;verticalAlign=middle;" parent="1" vertex="1">
          <mxGeometry x="1078" y="590" width="442" height="70" as="geometry" />
        </mxCell>
        <mxCell id="_B_MI62m7lRFY5nyLYBk-4" value="EABS I/O Module Application" style="rounded=0;shadow=1;fontStyle=1;fontSize=14;align=center;verticalAlign=middle;" parent="1" vertex="1">
          <mxGeometry x="1080" y="380" width="440" height="200" as="geometry" />
        </mxCell>
      </root>
    </mxGraphModel>
  </diagram>
  <diagram id="ZLnu7gTaWbsJe7dRuJZQ" name="IO - INPUT Context Diagram">
    <mxGraphModel dx="998" dy="775" grid="1" gridSize="10" guides="1" tooltips="1" connect="1" arrows="1" fold="1" page="1" pageScale="1" pageWidth="827" pageHeight="1169" math="0" shadow="0">
      <root>
        <mxCell id="0" />
        <mxCell id="1" parent="0" />
        <mxCell id="bEZ4lhTa7RFpmGCMsju--1" value="I/O Module" style="ellipse;whiteSpace=wrap;html=1;rounded=0;shadow=0;dashed=0;comic=0;fontFamily=Verdana;fontSize=22;fontColor=#0069D1;fillColor=#f5f5f5;strokeColor=#666666;" parent="1" vertex="1">
          <mxGeometry x="424" y="230" width="170" height="157.5" as="geometry" />
        </mxCell>
        <mxCell id="bEZ4lhTa7RFpmGCMsju--6" value="" style="endArrow=classic;html=1;rounded=0;entryX=0;entryY=0.25;entryDx=0;entryDy=0;exitX=1;exitY=0;exitDx=0;exitDy=0;" parent="1" source="bEZ4lhTa7RFpmGCMsju--1" target="SCCjzgoAfCpL_pZLjN92-4" edge="1">
          <mxGeometry width="50" height="50" relative="1" as="geometry">
            <mxPoint x="484" y="330" as="sourcePoint" />
            <mxPoint x="678.6799999999998" y="184.36" as="targetPoint" />
            <Array as="points">
              <mxPoint x="614" y="210" />
            </Array>
          </mxGeometry>
        </mxCell>
        <mxCell id="bEZ4lhTa7RFpmGCMsju--7" value="Watchdog Flip" style="edgeLabel;html=1;align=center;verticalAlign=middle;resizable=0;points=[];" parent="bEZ4lhTa7RFpmGCMsju--6" vertex="1" connectable="0">
          <mxGeometry x="0.0021" y="2" relative="1" as="geometry">
            <mxPoint y="1" as="offset" />
          </mxGeometry>
        </mxCell>
        <mxCell id="bEZ4lhTa7RFpmGCMsju--8" value="" style="endArrow=classic;html=1;rounded=0;exitX=0.358;exitY=1.017;exitDx=0;exitDy=0;exitPerimeter=0;entryX=0.988;entryY=0.438;entryDx=0;entryDy=0;entryPerimeter=0;" parent="1" source="SCCjzgoAfCpL_pZLjN92-4" target="bEZ4lhTa7RFpmGCMsju--1" edge="1">
          <mxGeometry width="50" height="50" relative="1" as="geometry">
            <mxPoint x="723.27" y="221.64999999999998" as="sourcePoint" />
            <mxPoint x="590" y="290" as="targetPoint" />
            <Array as="points">
              <mxPoint x="664" y="270" />
            </Array>
          </mxGeometry>
        </mxCell>
        <mxCell id="bEZ4lhTa7RFpmGCMsju--9" value="Watchdog Alive" style="edgeLabel;html=1;align=center;verticalAlign=middle;resizable=0;points=[];" parent="bEZ4lhTa7RFpmGCMsju--8" vertex="1" connectable="0">
          <mxGeometry x="-0.0046" relative="1" as="geometry">
            <mxPoint as="offset" />
          </mxGeometry>
        </mxCell>
        <mxCell id="bEZ4lhTa7RFpmGCMsju--10" value="" style="endArrow=classic;html=1;rounded=0;entryX=0.892;entryY=1.083;entryDx=0;entryDy=0;exitX=0.035;exitY=0.317;exitDx=0;exitDy=0;exitPerimeter=0;entryPerimeter=0;" parent="1" source="bEZ4lhTa7RFpmGCMsju--1" target="SCCjzgoAfCpL_pZLjN92-1" edge="1">
          <mxGeometry width="50" height="50" relative="1" as="geometry">
            <mxPoint x="430" y="290" as="sourcePoint" />
            <mxPoint x="356" y="204.28999999999996" as="targetPoint" />
            <Array as="points">
              <mxPoint x="370" y="260" />
            </Array>
          </mxGeometry>
        </mxCell>
        <mxCell id="bEZ4lhTa7RFpmGCMsju--11" value="Channel Tx Data" style="edgeLabel;html=1;align=center;verticalAlign=middle;resizable=0;points=[];" parent="bEZ4lhTa7RFpmGCMsju--10" vertex="1" connectable="0">
          <mxGeometry x="0.0021" y="2" relative="1" as="geometry">
            <mxPoint y="1" as="offset" />
          </mxGeometry>
        </mxCell>
        <mxCell id="bEZ4lhTa7RFpmGCMsju--12" value="" style="endArrow=classic;html=1;rounded=0;entryX=0.294;entryY=0.05;entryDx=0;entryDy=0;entryPerimeter=0;exitX=1;exitY=0.5;exitDx=0;exitDy=0;" parent="1" source="SCCjzgoAfCpL_pZLjN92-1" target="bEZ4lhTa7RFpmGCMsju--1" edge="1">
          <mxGeometry width="50" height="50" relative="1" as="geometry">
            <mxPoint x="429.97" y="171.62" as="sourcePoint" />
            <mxPoint x="601" y="302" as="targetPoint" />
            <Array as="points">
              <mxPoint x="390" y="190" />
            </Array>
          </mxGeometry>
        </mxCell>
        <mxCell id="bEZ4lhTa7RFpmGCMsju--13" value="Channel Rx Data" style="edgeLabel;html=1;align=center;verticalAlign=middle;resizable=0;points=[];" parent="bEZ4lhTa7RFpmGCMsju--12" vertex="1" connectable="0">
          <mxGeometry x="-0.0046" relative="1" as="geometry">
            <mxPoint as="offset" />
          </mxGeometry>
        </mxCell>
        <mxCell id="bEZ4lhTa7RFpmGCMsju--14" value="" style="endArrow=classic;html=1;rounded=0;exitX=0;exitY=1;exitDx=0;exitDy=0;entryX=1;entryY=0.75;entryDx=0;entryDy=0;" parent="1" source="bEZ4lhTa7RFpmGCMsju--1" target="SCCjzgoAfCpL_pZLjN92-3" edge="1">
          <mxGeometry width="50" height="50" relative="1" as="geometry">
            <mxPoint x="484" y="330" as="sourcePoint" />
            <mxPoint x="336.73" y="440.95000000000005" as="targetPoint" />
            <Array as="points">
              <mxPoint x="394" y="420" />
            </Array>
          </mxGeometry>
        </mxCell>
        <mxCell id="bEZ4lhTa7RFpmGCMsju--15" value="CAN Tx Data" style="edgeLabel;html=1;align=center;verticalAlign=middle;resizable=0;points=[];" parent="bEZ4lhTa7RFpmGCMsju--14" vertex="1" connectable="0">
          <mxGeometry x="0.0189" y="-3" relative="1" as="geometry">
            <mxPoint as="offset" />
          </mxGeometry>
        </mxCell>
        <mxCell id="bEZ4lhTa7RFpmGCMsju--16" value="" style="endArrow=classic;html=1;rounded=0;exitX=0.833;exitY=-0.083;exitDx=0;exitDy=0;entryX=0;entryY=0.642;entryDx=0;entryDy=0;entryPerimeter=0;exitPerimeter=0;" parent="1" source="SCCjzgoAfCpL_pZLjN92-3" target="bEZ4lhTa7RFpmGCMsju--1" edge="1">
          <mxGeometry width="50" height="50" relative="1" as="geometry">
            <mxPoint x="314.9619407771256" y="386.1091270347397" as="sourcePoint" />
            <mxPoint x="534" y="280" as="targetPoint" />
            <Array as="points">
              <mxPoint x="364" y="350" />
            </Array>
          </mxGeometry>
        </mxCell>
        <mxCell id="bEZ4lhTa7RFpmGCMsju--17" value="CAN Rx Data" style="edgeLabel;html=1;align=center;verticalAlign=middle;resizable=0;points=[];" parent="bEZ4lhTa7RFpmGCMsju--16" vertex="1" connectable="0">
          <mxGeometry x="0.0227" y="2" relative="1" as="geometry">
            <mxPoint as="offset" />
          </mxGeometry>
        </mxCell>
        <mxCell id="bEZ4lhTa7RFpmGCMsju--20" value="" style="endArrow=classic;html=1;rounded=0;exitX=0;exitY=0.5;exitDx=0;exitDy=0;entryX=1;entryY=1;entryDx=0;entryDy=0;" parent="1" source="SCCjzgoAfCpL_pZLjN92-2" target="bEZ4lhTa7RFpmGCMsju--1" edge="1">
          <mxGeometry width="50" height="50" relative="1" as="geometry">
            <mxPoint x="633.3599999999999" y="438.3800000000001" as="sourcePoint" />
            <mxPoint x="534" y="280" as="targetPoint" />
            <Array as="points">
              <mxPoint x="594" y="420" />
            </Array>
          </mxGeometry>
        </mxCell>
        <mxCell id="bEZ4lhTa7RFpmGCMsju--21" value="Digital Input" style="edgeLabel;html=1;align=center;verticalAlign=middle;resizable=0;points=[];" parent="bEZ4lhTa7RFpmGCMsju--20" vertex="1" connectable="0">
          <mxGeometry x="0.0951" y="2" relative="1" as="geometry">
            <mxPoint as="offset" />
          </mxGeometry>
        </mxCell>
        <mxCell id="SCCjzgoAfCpL_pZLjN92-1" value="Other Channel&lt;br&gt;(UART 1)&lt;br&gt;(UART 5)" style="rounded=0;whiteSpace=wrap;html=1;" parent="1" vertex="1">
          <mxGeometry x="240" y="150" width="120" height="60" as="geometry" />
        </mxCell>
        <mxCell id="SCCjzgoAfCpL_pZLjN92-2" value="Digital Input" style="rounded=0;whiteSpace=wrap;html=1;" parent="1" vertex="1">
          <mxGeometry x="630" y="420" width="120" height="60" as="geometry" />
        </mxCell>
        <mxCell id="SCCjzgoAfCpL_pZLjN92-3" value="CPU Module" style="rounded=0;whiteSpace=wrap;html=1;" parent="1" vertex="1">
          <mxGeometry x="230" y="410" width="120" height="60" as="geometry" />
        </mxCell>
        <mxCell id="SCCjzgoAfCpL_pZLjN92-4" value="WatchDog" style="rounded=0;whiteSpace=wrap;html=1;" parent="1" vertex="1">
          <mxGeometry x="660" y="170" width="120" height="60" as="geometry" />
        </mxCell>
      </root>
    </mxGraphModel>
  </diagram>
  <diagram id="JroDJEas-RoF1u3BaSrB" name="IO - INPUT 소프트웨어 계층구조">
    <mxGraphModel dx="1001" dy="633" grid="1" gridSize="10" guides="1" tooltips="1" connect="1" arrows="1" fold="1" page="1" pageScale="1" pageWidth="827" pageHeight="1169" math="0" shadow="0">
      <root>
        <mxCell id="0" />
        <mxCell id="1" parent="0" />
        <mxCell id="T9ecZK-UZPm5lxIUy5vb-36" value="" style="rounded=0;whiteSpace=wrap;html=1;dashed=1;" parent="1" vertex="1">
          <mxGeometry x="70" y="45" width="290" height="805" as="geometry" />
        </mxCell>
        <mxCell id="T9ecZK-UZPm5lxIUy5vb-42" value="" style="rounded=0;whiteSpace=wrap;html=1;dashed=1;" parent="1" vertex="1">
          <mxGeometry x="90" y="200" width="250" height="632" as="geometry" />
        </mxCell>
        <mxCell id="T9ecZK-UZPm5lxIUy5vb-41" value="" style="rounded=0;whiteSpace=wrap;html=1;dashed=1;" parent="1" vertex="1">
          <mxGeometry x="90" y="70" width="250" height="120" as="geometry" />
        </mxCell>
        <mxCell id="Xisn77rioX8W527mqWxI-2" value="Initialize hardware" style="rounded=0;whiteSpace=wrap;html=1;" parent="1" vertex="1">
          <mxGeometry x="153" y="95" width="170" height="35" as="geometry" />
        </mxCell>
        <mxCell id="Xisn77rioX8W527mqWxI-18" value="" style="rounded=0;whiteSpace=wrap;html=1;dashed=1;" parent="1" vertex="1">
          <mxGeometry x="400" y="60" width="278" height="280" as="geometry" />
        </mxCell>
        <mxCell id="Xisn77rioX8W527mqWxI-23" value="Interrupt&amp;nbsp; Routines" style="text;html=1;strokeColor=none;fillColor=none;align=center;verticalAlign=middle;whiteSpace=wrap;rounded=0;" parent="1" vertex="1">
          <mxGeometry x="403" y="70" width="127" height="30" as="geometry" />
        </mxCell>
        <mxCell id="Xisn77rioX8W527mqWxI-29" value="USART2_IRQHandler" style="shape=process;whiteSpace=wrap;html=1;backgroundOutline=1;" parent="1" vertex="1">
          <mxGeometry x="448" y="138" width="177" height="30" as="geometry" />
        </mxCell>
        <mxCell id="T9ecZK-UZPm5lxIUy5vb-4" value="Initialize global variable" style="rounded=0;whiteSpace=wrap;html=1;" parent="1" vertex="1">
          <mxGeometry x="152" y="140" width="170" height="35" as="geometry" />
        </mxCell>
        <mxCell id="T9ecZK-UZPm5lxIUy5vb-8" value="vCLI_Command" style="rounded=0;whiteSpace=wrap;html=1;" parent="1" vertex="1">
          <mxGeometry x="151" y="225" width="170" height="35" as="geometry" />
        </mxCell>
        <mxCell id="T9ecZK-UZPm5lxIUy5vb-10" value="vRS485_Recv" style="rounded=0;whiteSpace=wrap;html=1;" parent="1" vertex="1">
          <mxGeometry x="151" y="267" width="170" height="35" as="geometry" />
        </mxCell>
        <mxCell id="T9ecZK-UZPm5lxIUy5vb-12" value="vChannel_Master_Recv" style="rounded=0;whiteSpace=wrap;html=1;" parent="1" vertex="1">
          <mxGeometry x="151" y="309" width="170" height="35" as="geometry" />
        </mxCell>
        <mxCell id="T9ecZK-UZPm5lxIUy5vb-14" value="vChannel_Slave_Recv" style="rounded=0;whiteSpace=wrap;html=1;" parent="1" vertex="1">
          <mxGeometry x="151" y="352" width="170" height="35" as="geometry" />
        </mxCell>
        <mxCell id="T9ecZK-UZPm5lxIUy5vb-16" value="vCAN0InOutProcess" style="rounded=0;whiteSpace=wrap;html=1;" parent="1" vertex="1">
          <mxGeometry x="151" y="395" width="170" height="35" as="geometry" />
        </mxCell>
        <mxCell id="T9ecZK-UZPm5lxIUy5vb-18" value="vDisplayFndPoll" style="rounded=0;whiteSpace=wrap;html=1;" parent="1" vertex="1">
          <mxGeometry x="151" y="438" width="170" height="35" as="geometry" />
        </mxCell>
        <mxCell id="T9ecZK-UZPm5lxIUy5vb-20" value="vChOut2Poll" style="rounded=0;whiteSpace=wrap;html=1;" parent="1" vertex="1">
          <mxGeometry x="151" y="481" width="170" height="35" as="geometry" />
        </mxCell>
        <mxCell id="T9ecZK-UZPm5lxIUy5vb-22" value="vChannel_Send01_Poll" style="rounded=0;whiteSpace=wrap;html=1;" parent="1" vertex="1">
          <mxGeometry x="151" y="524" width="170" height="35" as="geometry" />
        </mxCell>
        <mxCell id="T9ecZK-UZPm5lxIUy5vb-24" value="vChannel_Common01_Poll" style="rounded=0;whiteSpace=wrap;html=1;" parent="1" vertex="1">
          <mxGeometry x="151" y="567" width="170" height="35" as="geometry" />
        </mxCell>
        <mxCell id="T9ecZK-UZPm5lxIUy5vb-27" value="vPort_IN1_8Process" style="rounded=0;whiteSpace=wrap;html=1;" parent="1" vertex="1">
          <mxGeometry x="151" y="610" width="170" height="35" as="geometry" />
        </mxCell>
        <mxCell id="T9ecZK-UZPm5lxIUy5vb-29" value="vCpuIn05Poll" style="rounded=0;whiteSpace=wrap;html=1;" parent="1" vertex="1">
          <mxGeometry x="151" y="653" width="170" height="35" as="geometry" />
        </mxCell>
        <mxCell id="T9ecZK-UZPm5lxIUy5vb-31" value="vInCpuRS485_Poll" style="rounded=0;whiteSpace=wrap;html=1;" parent="1" vertex="1">
          <mxGeometry x="151" y="696" width="170" height="35" as="geometry" />
        </mxCell>
        <mxCell id="T9ecZK-UZPm5lxIUy5vb-33" value="vLEDRunFailPoll" style="rounded=0;whiteSpace=wrap;html=1;" parent="1" vertex="1">
          <mxGeometry x="151" y="739" width="170" height="35" as="geometry" />
        </mxCell>
        <mxCell id="T9ecZK-UZPm5lxIUy5vb-35" value="vPSU_ErrorCheck" style="rounded=0;whiteSpace=wrap;html=1;" parent="1" vertex="1">
          <mxGeometry x="151" y="782" width="170" height="35" as="geometry" />
        </mxCell>
        <mxCell id="T9ecZK-UZPm5lxIUy5vb-37" value="USART5_IRQHandler" style="shape=process;whiteSpace=wrap;html=1;backgroundOutline=1;" parent="1" vertex="1">
          <mxGeometry x="448" y="188" width="178" height="30" as="geometry" />
        </mxCell>
        <mxCell id="T9ecZK-UZPm5lxIUy5vb-38" value="CAN0_RX1_IRQHandler" style="shape=process;whiteSpace=wrap;html=1;backgroundOutline=1;" parent="1" vertex="1">
          <mxGeometry x="448" y="238" width="178" height="30" as="geometry" />
        </mxCell>
        <mxCell id="T9ecZK-UZPm5lxIUy5vb-43" value="IO Application" style="rounded=0;whiteSpace=wrap;html=1;" parent="1" vertex="1">
          <mxGeometry x="90" y="30" width="120" height="30" as="geometry" />
        </mxCell>
        <mxCell id="T9ecZK-UZPm5lxIUy5vb-44" value="" style="endArrow=none;html=1;rounded=0;entryX=0.25;entryY=1;entryDx=0;entryDy=0;strokeWidth=2;" parent="1" edge="1">
          <mxGeometry width="50" height="50" relative="1" as="geometry">
            <mxPoint x="120" y="800" as="sourcePoint" />
            <mxPoint x="120" y="60" as="targetPoint" />
          </mxGeometry>
        </mxCell>
        <mxCell id="T9ecZK-UZPm5lxIUy5vb-46" value="" style="endArrow=none;html=1;rounded=0;" parent="1" edge="1">
          <mxGeometry width="50" height="50" relative="1" as="geometry">
            <mxPoint x="120" y="758" as="sourcePoint" />
            <mxPoint x="150" y="758" as="targetPoint" />
          </mxGeometry>
        </mxCell>
        <mxCell id="T9ecZK-UZPm5lxIUy5vb-47" value="" style="endArrow=none;html=1;rounded=0;" parent="1" edge="1">
          <mxGeometry width="50" height="50" relative="1" as="geometry">
            <mxPoint x="120" y="799" as="sourcePoint" />
            <mxPoint x="150" y="799" as="targetPoint" />
          </mxGeometry>
        </mxCell>
        <mxCell id="T9ecZK-UZPm5lxIUy5vb-48" value="" style="endArrow=none;html=1;rounded=0;" parent="1" edge="1">
          <mxGeometry width="50" height="50" relative="1" as="geometry">
            <mxPoint x="121" y="715" as="sourcePoint" />
            <mxPoint x="151" y="715" as="targetPoint" />
          </mxGeometry>
        </mxCell>
        <mxCell id="T9ecZK-UZPm5lxIUy5vb-50" value="" style="endArrow=none;html=1;rounded=0;" parent="1" edge="1">
          <mxGeometry width="50" height="50" relative="1" as="geometry">
            <mxPoint x="120" y="671" as="sourcePoint" />
            <mxPoint x="150" y="671" as="targetPoint" />
          </mxGeometry>
        </mxCell>
        <mxCell id="T9ecZK-UZPm5lxIUy5vb-51" value="" style="endArrow=none;html=1;rounded=0;" parent="1" edge="1">
          <mxGeometry width="50" height="50" relative="1" as="geometry">
            <mxPoint x="120" y="627" as="sourcePoint" />
            <mxPoint x="150" y="627" as="targetPoint" />
          </mxGeometry>
        </mxCell>
        <mxCell id="6A47RJUxjuTdoSL7XtpK-1" value="" style="endArrow=none;html=1;rounded=0;" parent="1" edge="1">
          <mxGeometry width="50" height="50" relative="1" as="geometry">
            <mxPoint x="120" y="585" as="sourcePoint" />
            <mxPoint x="150" y="585" as="targetPoint" />
          </mxGeometry>
        </mxCell>
        <mxCell id="6A47RJUxjuTdoSL7XtpK-2" value="" style="endArrow=none;html=1;rounded=0;" parent="1" edge="1">
          <mxGeometry width="50" height="50" relative="1" as="geometry">
            <mxPoint x="121" y="542" as="sourcePoint" />
            <mxPoint x="151" y="542" as="targetPoint" />
          </mxGeometry>
        </mxCell>
        <mxCell id="6A47RJUxjuTdoSL7XtpK-3" value="" style="endArrow=none;html=1;rounded=0;" parent="1" edge="1">
          <mxGeometry width="50" height="50" relative="1" as="geometry">
            <mxPoint x="121" y="498" as="sourcePoint" />
            <mxPoint x="151" y="498" as="targetPoint" />
          </mxGeometry>
        </mxCell>
        <mxCell id="6A47RJUxjuTdoSL7XtpK-4" value="" style="endArrow=none;html=1;rounded=0;" parent="1" edge="1">
          <mxGeometry width="50" height="50" relative="1" as="geometry">
            <mxPoint x="120" y="457" as="sourcePoint" />
            <mxPoint x="150" y="457" as="targetPoint" />
          </mxGeometry>
        </mxCell>
        <mxCell id="6A47RJUxjuTdoSL7XtpK-5" value="" style="endArrow=none;html=1;rounded=0;" parent="1" edge="1">
          <mxGeometry width="50" height="50" relative="1" as="geometry">
            <mxPoint x="120" y="413" as="sourcePoint" />
            <mxPoint x="150" y="413" as="targetPoint" />
          </mxGeometry>
        </mxCell>
        <mxCell id="6A47RJUxjuTdoSL7XtpK-6" value="" style="endArrow=none;html=1;rounded=0;" parent="1" edge="1">
          <mxGeometry width="50" height="50" relative="1" as="geometry">
            <mxPoint x="120" y="371" as="sourcePoint" />
            <mxPoint x="150" y="371" as="targetPoint" />
          </mxGeometry>
        </mxCell>
        <mxCell id="6A47RJUxjuTdoSL7XtpK-7" value="" style="endArrow=none;html=1;rounded=0;" parent="1" edge="1">
          <mxGeometry width="50" height="50" relative="1" as="geometry">
            <mxPoint x="120" y="328" as="sourcePoint" />
            <mxPoint x="150" y="328" as="targetPoint" />
          </mxGeometry>
        </mxCell>
        <mxCell id="6A47RJUxjuTdoSL7XtpK-8" value="" style="endArrow=none;html=1;rounded=0;" parent="1" edge="1">
          <mxGeometry width="50" height="50" relative="1" as="geometry">
            <mxPoint x="120" y="285" as="sourcePoint" />
            <mxPoint x="150" y="285" as="targetPoint" />
          </mxGeometry>
        </mxCell>
        <mxCell id="6A47RJUxjuTdoSL7XtpK-9" value="" style="endArrow=none;html=1;rounded=0;" parent="1" edge="1">
          <mxGeometry width="50" height="50" relative="1" as="geometry">
            <mxPoint x="121" y="243" as="sourcePoint" />
            <mxPoint x="151" y="243" as="targetPoint" />
          </mxGeometry>
        </mxCell>
        <mxCell id="6A47RJUxjuTdoSL7XtpK-11" value="" style="endArrow=none;html=1;rounded=0;" parent="1" edge="1">
          <mxGeometry width="50" height="50" relative="1" as="geometry">
            <mxPoint x="121" y="159" as="sourcePoint" />
            <mxPoint x="151" y="159" as="targetPoint" />
          </mxGeometry>
        </mxCell>
        <mxCell id="6A47RJUxjuTdoSL7XtpK-12" value="" style="endArrow=none;html=1;rounded=0;" parent="1" edge="1">
          <mxGeometry width="50" height="50" relative="1" as="geometry">
            <mxPoint x="121" y="113" as="sourcePoint" />
            <mxPoint x="151" y="113" as="targetPoint" />
          </mxGeometry>
        </mxCell>
        <mxCell id="FmUsMsqHGhcpZVQl9Xnq-1" value="Initialize Routines" style="text;html=1;strokeColor=none;fillColor=none;align=center;verticalAlign=middle;whiteSpace=wrap;rounded=0;" parent="1" vertex="1">
          <mxGeometry x="240" y="70" width="100" height="20" as="geometry" />
        </mxCell>
        <mxCell id="FmUsMsqHGhcpZVQl9Xnq-2" value="Operation Routines" style="text;html=1;strokeColor=none;fillColor=none;align=center;verticalAlign=middle;whiteSpace=wrap;rounded=0;" parent="1" vertex="1">
          <mxGeometry x="230" y="200" width="110" height="20" as="geometry" />
        </mxCell>
      </root>
    </mxGraphModel>
  </diagram>
  <diagram name="IO - INPUT 소프트웨어 계층구조2" id="-slB9VglObaHwJvWjara">
    <mxGraphModel dx="1003" dy="634" grid="1" gridSize="10" guides="1" tooltips="1" connect="1" arrows="1" fold="1" page="1" pageScale="1" pageWidth="827" pageHeight="1169" math="0" shadow="0">
      <root>
        <mxCell id="PfBKoKlYES76OOOarIdP-0" />
        <mxCell id="PfBKoKlYES76OOOarIdP-1" parent="PfBKoKlYES76OOOarIdP-0" />
        <mxCell id="PfBKoKlYES76OOOarIdP-2" value="" style="rounded=0;whiteSpace=wrap;html=1;dashed=1;" vertex="1" parent="PfBKoKlYES76OOOarIdP-1">
          <mxGeometry x="70" y="45" width="290" height="655" as="geometry" />
        </mxCell>
        <mxCell id="PfBKoKlYES76OOOarIdP-3" value="" style="rounded=0;whiteSpace=wrap;html=1;dashed=1;" vertex="1" parent="PfBKoKlYES76OOOarIdP-1">
          <mxGeometry x="90" y="200" width="250" height="470" as="geometry" />
        </mxCell>
        <mxCell id="PfBKoKlYES76OOOarIdP-4" value="" style="rounded=0;whiteSpace=wrap;html=1;dashed=1;" vertex="1" parent="PfBKoKlYES76OOOarIdP-1">
          <mxGeometry x="90" y="70" width="250" height="120" as="geometry" />
        </mxCell>
        <mxCell id="PfBKoKlYES76OOOarIdP-5" value="Initialize hardware" style="rounded=0;whiteSpace=wrap;html=1;" vertex="1" parent="PfBKoKlYES76OOOarIdP-1">
          <mxGeometry x="153" y="95" width="170" height="35" as="geometry" />
        </mxCell>
        <mxCell id="PfBKoKlYES76OOOarIdP-6" value="" style="rounded=0;whiteSpace=wrap;html=1;dashed=1;" vertex="1" parent="PfBKoKlYES76OOOarIdP-1">
          <mxGeometry x="400" y="60" width="278" height="280" as="geometry" />
        </mxCell>
        <mxCell id="PfBKoKlYES76OOOarIdP-7" value="Interrupt&amp;nbsp; Routines" style="text;html=1;strokeColor=none;fillColor=none;align=center;verticalAlign=middle;whiteSpace=wrap;rounded=0;" vertex="1" parent="PfBKoKlYES76OOOarIdP-1">
          <mxGeometry x="403" y="70" width="127" height="30" as="geometry" />
        </mxCell>
        <mxCell id="PfBKoKlYES76OOOarIdP-8" value="USART2_IRQHandler" style="shape=process;whiteSpace=wrap;html=1;backgroundOutline=1;" vertex="1" parent="PfBKoKlYES76OOOarIdP-1">
          <mxGeometry x="448" y="138" width="177" height="30" as="geometry" />
        </mxCell>
        <mxCell id="PfBKoKlYES76OOOarIdP-9" value="Initialize global variable" style="rounded=0;whiteSpace=wrap;html=1;" vertex="1" parent="PfBKoKlYES76OOOarIdP-1">
          <mxGeometry x="152" y="140" width="170" height="35" as="geometry" />
        </mxCell>
        <mxCell id="PfBKoKlYES76OOOarIdP-10" value="vCLI_Command" style="rounded=0;whiteSpace=wrap;html=1;" vertex="1" parent="PfBKoKlYES76OOOarIdP-1">
          <mxGeometry x="151" y="225" width="170" height="35" as="geometry" />
        </mxCell>
        <mxCell id="PfBKoKlYES76OOOarIdP-11" value="vChannel_Slave_Recv" style="rounded=0;whiteSpace=wrap;html=1;" vertex="1" parent="PfBKoKlYES76OOOarIdP-1">
          <mxGeometry x="151" y="267" width="170" height="35" as="geometry" />
        </mxCell>
        <mxCell id="PfBKoKlYES76OOOarIdP-12" value="vCAN0InOutProcess" style="rounded=0;whiteSpace=wrap;html=1;" vertex="1" parent="PfBKoKlYES76OOOarIdP-1">
          <mxGeometry x="151" y="309" width="170" height="35" as="geometry" />
        </mxCell>
        <mxCell id="PfBKoKlYES76OOOarIdP-13" value="vDisplayFndPoll" style="rounded=0;whiteSpace=wrap;html=1;" vertex="1" parent="PfBKoKlYES76OOOarIdP-1">
          <mxGeometry x="151" y="352" width="170" height="35" as="geometry" />
        </mxCell>
        <mxCell id="PfBKoKlYES76OOOarIdP-14" value="vChOut2Poll" style="rounded=0;whiteSpace=wrap;html=1;" vertex="1" parent="PfBKoKlYES76OOOarIdP-1">
          <mxGeometry x="151" y="395" width="170" height="35" as="geometry" />
        </mxCell>
        <mxCell id="PfBKoKlYES76OOOarIdP-15" value="vChannel_Send01_Poll" style="rounded=0;whiteSpace=wrap;html=1;" vertex="1" parent="PfBKoKlYES76OOOarIdP-1">
          <mxGeometry x="151" y="438" width="170" height="35" as="geometry" />
        </mxCell>
        <mxCell id="PfBKoKlYES76OOOarIdP-16" value="vChannel_Common01_Poll" style="rounded=0;whiteSpace=wrap;html=1;" vertex="1" parent="PfBKoKlYES76OOOarIdP-1">
          <mxGeometry x="151" y="481" width="170" height="35" as="geometry" />
        </mxCell>
        <mxCell id="PfBKoKlYES76OOOarIdP-17" value="vPort_IN1_8Process" style="rounded=0;whiteSpace=wrap;html=1;" vertex="1" parent="PfBKoKlYES76OOOarIdP-1">
          <mxGeometry x="151" y="524" width="170" height="35" as="geometry" />
        </mxCell>
        <mxCell id="PfBKoKlYES76OOOarIdP-18" value="vLEDRunFailPoll" style="rounded=0;whiteSpace=wrap;html=1;" vertex="1" parent="PfBKoKlYES76OOOarIdP-1">
          <mxGeometry x="151" y="567" width="170" height="35" as="geometry" />
        </mxCell>
        <mxCell id="PfBKoKlYES76OOOarIdP-19" value="vPSU_ErrorCheck" style="rounded=0;whiteSpace=wrap;html=1;" vertex="1" parent="PfBKoKlYES76OOOarIdP-1">
          <mxGeometry x="151" y="610" width="170" height="35" as="geometry" />
        </mxCell>
        <mxCell id="PfBKoKlYES76OOOarIdP-24" value="USART5_IRQHandler" style="shape=process;whiteSpace=wrap;html=1;backgroundOutline=1;" vertex="1" parent="PfBKoKlYES76OOOarIdP-1">
          <mxGeometry x="448" y="188" width="178" height="30" as="geometry" />
        </mxCell>
        <mxCell id="PfBKoKlYES76OOOarIdP-25" value="CAN0_RX1_IRQHandler" style="shape=process;whiteSpace=wrap;html=1;backgroundOutline=1;" vertex="1" parent="PfBKoKlYES76OOOarIdP-1">
          <mxGeometry x="448" y="238" width="178" height="30" as="geometry" />
        </mxCell>
        <mxCell id="PfBKoKlYES76OOOarIdP-26" value="IO Application" style="rounded=0;whiteSpace=wrap;html=1;" vertex="1" parent="PfBKoKlYES76OOOarIdP-1">
          <mxGeometry x="90" y="30" width="120" height="30" as="geometry" />
        </mxCell>
        <mxCell id="PfBKoKlYES76OOOarIdP-27" value="" style="endArrow=none;html=1;rounded=0;entryX=0.25;entryY=1;entryDx=0;entryDy=0;strokeWidth=2;" edge="1" parent="PfBKoKlYES76OOOarIdP-1">
          <mxGeometry width="50" height="50" relative="1" as="geometry">
            <mxPoint x="120" y="630" as="sourcePoint" />
            <mxPoint x="120" y="60" as="targetPoint" />
          </mxGeometry>
        </mxCell>
        <mxCell id="PfBKoKlYES76OOOarIdP-32" value="" style="endArrow=none;html=1;rounded=0;" edge="1" parent="PfBKoKlYES76OOOarIdP-1">
          <mxGeometry width="50" height="50" relative="1" as="geometry">
            <mxPoint x="120" y="627" as="sourcePoint" />
            <mxPoint x="150" y="627" as="targetPoint" />
          </mxGeometry>
        </mxCell>
        <mxCell id="PfBKoKlYES76OOOarIdP-33" value="" style="endArrow=none;html=1;rounded=0;" edge="1" parent="PfBKoKlYES76OOOarIdP-1">
          <mxGeometry width="50" height="50" relative="1" as="geometry">
            <mxPoint x="120" y="585" as="sourcePoint" />
            <mxPoint x="150" y="585" as="targetPoint" />
          </mxGeometry>
        </mxCell>
        <mxCell id="PfBKoKlYES76OOOarIdP-34" value="" style="endArrow=none;html=1;rounded=0;" edge="1" parent="PfBKoKlYES76OOOarIdP-1">
          <mxGeometry width="50" height="50" relative="1" as="geometry">
            <mxPoint x="121" y="542" as="sourcePoint" />
            <mxPoint x="151" y="542" as="targetPoint" />
          </mxGeometry>
        </mxCell>
        <mxCell id="PfBKoKlYES76OOOarIdP-35" value="" style="endArrow=none;html=1;rounded=0;" edge="1" parent="PfBKoKlYES76OOOarIdP-1">
          <mxGeometry width="50" height="50" relative="1" as="geometry">
            <mxPoint x="121" y="498" as="sourcePoint" />
            <mxPoint x="151" y="498" as="targetPoint" />
          </mxGeometry>
        </mxCell>
        <mxCell id="PfBKoKlYES76OOOarIdP-36" value="" style="endArrow=none;html=1;rounded=0;" edge="1" parent="PfBKoKlYES76OOOarIdP-1">
          <mxGeometry width="50" height="50" relative="1" as="geometry">
            <mxPoint x="120" y="457" as="sourcePoint" />
            <mxPoint x="150" y="457" as="targetPoint" />
          </mxGeometry>
        </mxCell>
        <mxCell id="PfBKoKlYES76OOOarIdP-37" value="" style="endArrow=none;html=1;rounded=0;" edge="1" parent="PfBKoKlYES76OOOarIdP-1">
          <mxGeometry width="50" height="50" relative="1" as="geometry">
            <mxPoint x="120" y="413" as="sourcePoint" />
            <mxPoint x="150" y="413" as="targetPoint" />
          </mxGeometry>
        </mxCell>
        <mxCell id="PfBKoKlYES76OOOarIdP-38" value="" style="endArrow=none;html=1;rounded=0;" edge="1" parent="PfBKoKlYES76OOOarIdP-1">
          <mxGeometry width="50" height="50" relative="1" as="geometry">
            <mxPoint x="120" y="371" as="sourcePoint" />
            <mxPoint x="150" y="371" as="targetPoint" />
          </mxGeometry>
        </mxCell>
        <mxCell id="PfBKoKlYES76OOOarIdP-39" value="" style="endArrow=none;html=1;rounded=0;" edge="1" parent="PfBKoKlYES76OOOarIdP-1">
          <mxGeometry width="50" height="50" relative="1" as="geometry">
            <mxPoint x="120" y="328" as="sourcePoint" />
            <mxPoint x="150" y="328" as="targetPoint" />
          </mxGeometry>
        </mxCell>
        <mxCell id="PfBKoKlYES76OOOarIdP-40" value="" style="endArrow=none;html=1;rounded=0;" edge="1" parent="PfBKoKlYES76OOOarIdP-1">
          <mxGeometry width="50" height="50" relative="1" as="geometry">
            <mxPoint x="120" y="285" as="sourcePoint" />
            <mxPoint x="150" y="285" as="targetPoint" />
          </mxGeometry>
        </mxCell>
        <mxCell id="PfBKoKlYES76OOOarIdP-41" value="" style="endArrow=none;html=1;rounded=0;" edge="1" parent="PfBKoKlYES76OOOarIdP-1">
          <mxGeometry width="50" height="50" relative="1" as="geometry">
            <mxPoint x="121" y="243" as="sourcePoint" />
            <mxPoint x="151" y="243" as="targetPoint" />
          </mxGeometry>
        </mxCell>
        <mxCell id="PfBKoKlYES76OOOarIdP-42" value="" style="endArrow=none;html=1;rounded=0;" edge="1" parent="PfBKoKlYES76OOOarIdP-1">
          <mxGeometry width="50" height="50" relative="1" as="geometry">
            <mxPoint x="121" y="159" as="sourcePoint" />
            <mxPoint x="151" y="159" as="targetPoint" />
          </mxGeometry>
        </mxCell>
        <mxCell id="PfBKoKlYES76OOOarIdP-43" value="" style="endArrow=none;html=1;rounded=0;" edge="1" parent="PfBKoKlYES76OOOarIdP-1">
          <mxGeometry width="50" height="50" relative="1" as="geometry">
            <mxPoint x="121" y="113" as="sourcePoint" />
            <mxPoint x="151" y="113" as="targetPoint" />
          </mxGeometry>
        </mxCell>
        <mxCell id="PfBKoKlYES76OOOarIdP-44" value="Initialize Routines" style="text;html=1;strokeColor=none;fillColor=none;align=center;verticalAlign=middle;whiteSpace=wrap;rounded=0;" vertex="1" parent="PfBKoKlYES76OOOarIdP-1">
          <mxGeometry x="240" y="70" width="100" height="20" as="geometry" />
        </mxCell>
        <mxCell id="PfBKoKlYES76OOOarIdP-45" value="Operation Routines" style="text;html=1;strokeColor=none;fillColor=none;align=center;verticalAlign=middle;whiteSpace=wrap;rounded=0;" vertex="1" parent="PfBKoKlYES76OOOarIdP-1">
          <mxGeometry x="230" y="200" width="110" height="20" as="geometry" />
        </mxCell>
      </root>
    </mxGraphModel>
  </diagram>
  <diagram id="v8hdmbQpEaAxQZEGyBv8" name="IO - INPUT Initialize hardware">
    <mxGraphModel dx="1001" dy="633" grid="1" gridSize="10" guides="1" tooltips="1" connect="1" arrows="1" fold="1" page="1" pageScale="1" pageWidth="827" pageHeight="1169" math="0" shadow="0">
      <root>
        <mxCell id="0" />
        <mxCell id="1" parent="0" />
        <mxCell id="8dO68MQHvzvy9Cgtx9RF-1" value="" style="rounded=0;whiteSpace=wrap;html=1;dashed=1;" parent="1" vertex="1">
          <mxGeometry x="80" y="70" width="290" height="770" as="geometry" />
        </mxCell>
        <mxCell id="8dO68MQHvzvy9Cgtx9RF-10" value="&lt;div&gt;systick_config&lt;/div&gt;" style="rounded=0;whiteSpace=wrap;html=1;" parent="1" vertex="1">
          <mxGeometry x="161" y="146" width="170" height="35" as="geometry" />
        </mxCell>
        <mxCell id="8dO68MQHvzvy9Cgtx9RF-11" value="vNvic_irq_Priority" style="rounded=0;whiteSpace=wrap;html=1;" parent="1" vertex="1">
          <mxGeometry x="161" y="188" width="170" height="35" as="geometry" />
        </mxCell>
        <mxCell id="8dO68MQHvzvy9Cgtx9RF-12" value="vUSART2_Init" style="rounded=0;whiteSpace=wrap;html=1;" parent="1" vertex="1">
          <mxGeometry x="161" y="230" width="170" height="35" as="geometry" />
        </mxCell>
        <mxCell id="8dO68MQHvzvy9Cgtx9RF-13" value="vUSART1_Init" style="rounded=0;whiteSpace=wrap;html=1;" parent="1" vertex="1">
          <mxGeometry x="161" y="273" width="170" height="35" as="geometry" />
        </mxCell>
        <mxCell id="8dO68MQHvzvy9Cgtx9RF-14" value="vUSART5_Init" style="rounded=0;whiteSpace=wrap;html=1;" parent="1" vertex="1">
          <mxGeometry x="161" y="316" width="170" height="35" as="geometry" />
        </mxCell>
        <mxCell id="8dO68MQHvzvy9Cgtx9RF-15" value="vCAN0_SMODE" style="rounded=0;whiteSpace=wrap;html=1;" parent="1" vertex="1">
          <mxGeometry x="161" y="359" width="170" height="35" as="geometry" />
        </mxCell>
        <mxCell id="8dO68MQHvzvy9Cgtx9RF-16" value="vCAN0_Init" style="rounded=0;whiteSpace=wrap;html=1;" parent="1" vertex="1">
          <mxGeometry x="161" y="402" width="170" height="35" as="geometry" />
        </mxCell>
        <mxCell id="8dO68MQHvzvy9Cgtx9RF-17" value="vFND_Init" style="rounded=0;whiteSpace=wrap;html=1;" parent="1" vertex="1">
          <mxGeometry x="161" y="445" width="170" height="35" as="geometry" />
        </mxCell>
        <mxCell id="8dO68MQHvzvy9Cgtx9RF-18" value="vLED_Init" style="rounded=0;whiteSpace=wrap;html=1;" parent="1" vertex="1">
          <mxGeometry x="161" y="488" width="170" height="35" as="geometry" />
        </mxCell>
        <mxCell id="8dO68MQHvzvy9Cgtx9RF-19" value="vChIn2Config" style="rounded=0;whiteSpace=wrap;html=1;" parent="1" vertex="1">
          <mxGeometry x="161" y="531" width="170" height="35" as="geometry" />
        </mxCell>
        <mxCell id="8dO68MQHvzvy9Cgtx9RF-20" value="vChOut2Config" style="rounded=0;whiteSpace=wrap;html=1;" parent="1" vertex="1">
          <mxGeometry x="161" y="574" width="170" height="35" as="geometry" />
        </mxCell>
        <mxCell id="8dO68MQHvzvy9Cgtx9RF-21" value="vCHGPIO_Init" style="rounded=0;whiteSpace=wrap;html=1;" parent="1" vertex="1">
          <mxGeometry x="161" y="617" width="170" height="35" as="geometry" />
        </mxCell>
        <mxCell id="8dO68MQHvzvy9Cgtx9RF-22" value="vIN_GPIO_Init" style="rounded=0;whiteSpace=wrap;html=1;" parent="1" vertex="1">
          <mxGeometry x="161" y="660" width="170" height="35" as="geometry" />
        </mxCell>
        <mxCell id="8dO68MQHvzvy9Cgtx9RF-23" value="vOutTEST_IN_Init" style="rounded=0;whiteSpace=wrap;html=1;" parent="1" vertex="1">
          <mxGeometry x="161" y="703" width="170" height="35" as="geometry" />
        </mxCell>
        <mxCell id="8dO68MQHvzvy9Cgtx9RF-26" value="Initialize hardware" style="rounded=0;whiteSpace=wrap;html=1;" parent="1" vertex="1">
          <mxGeometry x="100" y="90" width="120" height="30" as="geometry" />
        </mxCell>
        <mxCell id="8dO68MQHvzvy9Cgtx9RF-27" value="" style="endArrow=none;html=1;rounded=0;strokeWidth=2;" parent="1" edge="1">
          <mxGeometry width="50" height="50" relative="1" as="geometry">
            <mxPoint x="130" y="810" as="sourcePoint" />
            <mxPoint x="130" y="120" as="targetPoint" />
          </mxGeometry>
        </mxCell>
        <mxCell id="8dO68MQHvzvy9Cgtx9RF-28" value="" style="endArrow=none;html=1;rounded=0;" parent="1" edge="1">
          <mxGeometry width="50" height="50" relative="1" as="geometry">
            <mxPoint x="130" y="679" as="sourcePoint" />
            <mxPoint x="160" y="679" as="targetPoint" />
          </mxGeometry>
        </mxCell>
        <mxCell id="8dO68MQHvzvy9Cgtx9RF-29" value="" style="endArrow=none;html=1;rounded=0;" parent="1" edge="1">
          <mxGeometry width="50" height="50" relative="1" as="geometry">
            <mxPoint x="130" y="720" as="sourcePoint" />
            <mxPoint x="160" y="720" as="targetPoint" />
          </mxGeometry>
        </mxCell>
        <mxCell id="8dO68MQHvzvy9Cgtx9RF-30" value="" style="endArrow=none;html=1;rounded=0;" parent="1" edge="1">
          <mxGeometry width="50" height="50" relative="1" as="geometry">
            <mxPoint x="131" y="636" as="sourcePoint" />
            <mxPoint x="161" y="636" as="targetPoint" />
          </mxGeometry>
        </mxCell>
        <mxCell id="8dO68MQHvzvy9Cgtx9RF-31" value="" style="endArrow=none;html=1;rounded=0;" parent="1" edge="1">
          <mxGeometry width="50" height="50" relative="1" as="geometry">
            <mxPoint x="130" y="592" as="sourcePoint" />
            <mxPoint x="160" y="592" as="targetPoint" />
          </mxGeometry>
        </mxCell>
        <mxCell id="8dO68MQHvzvy9Cgtx9RF-32" value="" style="endArrow=none;html=1;rounded=0;" parent="1" edge="1">
          <mxGeometry width="50" height="50" relative="1" as="geometry">
            <mxPoint x="130" y="548" as="sourcePoint" />
            <mxPoint x="160" y="548" as="targetPoint" />
          </mxGeometry>
        </mxCell>
        <mxCell id="8dO68MQHvzvy9Cgtx9RF-33" value="" style="endArrow=none;html=1;rounded=0;" parent="1" edge="1">
          <mxGeometry width="50" height="50" relative="1" as="geometry">
            <mxPoint x="130" y="506" as="sourcePoint" />
            <mxPoint x="160" y="506" as="targetPoint" />
          </mxGeometry>
        </mxCell>
        <mxCell id="8dO68MQHvzvy9Cgtx9RF-34" value="" style="endArrow=none;html=1;rounded=0;" parent="1" edge="1">
          <mxGeometry width="50" height="50" relative="1" as="geometry">
            <mxPoint x="131" y="463" as="sourcePoint" />
            <mxPoint x="161" y="463" as="targetPoint" />
          </mxGeometry>
        </mxCell>
        <mxCell id="8dO68MQHvzvy9Cgtx9RF-35" value="" style="endArrow=none;html=1;rounded=0;" parent="1" edge="1">
          <mxGeometry width="50" height="50" relative="1" as="geometry">
            <mxPoint x="131" y="419" as="sourcePoint" />
            <mxPoint x="161" y="419" as="targetPoint" />
          </mxGeometry>
        </mxCell>
        <mxCell id="8dO68MQHvzvy9Cgtx9RF-36" value="" style="endArrow=none;html=1;rounded=0;" parent="1" edge="1">
          <mxGeometry width="50" height="50" relative="1" as="geometry">
            <mxPoint x="130" y="378" as="sourcePoint" />
            <mxPoint x="160" y="378" as="targetPoint" />
          </mxGeometry>
        </mxCell>
        <mxCell id="8dO68MQHvzvy9Cgtx9RF-37" value="" style="endArrow=none;html=1;rounded=0;" parent="1" edge="1">
          <mxGeometry width="50" height="50" relative="1" as="geometry">
            <mxPoint x="130" y="334" as="sourcePoint" />
            <mxPoint x="160" y="334" as="targetPoint" />
          </mxGeometry>
        </mxCell>
        <mxCell id="8dO68MQHvzvy9Cgtx9RF-38" value="" style="endArrow=none;html=1;rounded=0;" parent="1" edge="1">
          <mxGeometry width="50" height="50" relative="1" as="geometry">
            <mxPoint x="130" y="292" as="sourcePoint" />
            <mxPoint x="160" y="292" as="targetPoint" />
          </mxGeometry>
        </mxCell>
        <mxCell id="8dO68MQHvzvy9Cgtx9RF-39" value="" style="endArrow=none;html=1;rounded=0;" parent="1" edge="1">
          <mxGeometry width="50" height="50" relative="1" as="geometry">
            <mxPoint x="130" y="249" as="sourcePoint" />
            <mxPoint x="160" y="249" as="targetPoint" />
          </mxGeometry>
        </mxCell>
        <mxCell id="8dO68MQHvzvy9Cgtx9RF-40" value="" style="endArrow=none;html=1;rounded=0;" parent="1" edge="1">
          <mxGeometry width="50" height="50" relative="1" as="geometry">
            <mxPoint x="130" y="206" as="sourcePoint" />
            <mxPoint x="160" y="206" as="targetPoint" />
          </mxGeometry>
        </mxCell>
        <mxCell id="8dO68MQHvzvy9Cgtx9RF-41" value="" style="endArrow=none;html=1;rounded=0;" parent="1" edge="1">
          <mxGeometry width="50" height="50" relative="1" as="geometry">
            <mxPoint x="131" y="164" as="sourcePoint" />
            <mxPoint x="161" y="164" as="targetPoint" />
          </mxGeometry>
        </mxCell>
        <mxCell id="5PLqkf-imeQKEsd1Dz64-1" value="vCpuIn05Config" style="rounded=0;whiteSpace=wrap;html=1;" parent="1" vertex="1">
          <mxGeometry x="161" y="746" width="170" height="35" as="geometry" />
        </mxCell>
        <mxCell id="5PLqkf-imeQKEsd1Dz64-2" value="" style="endArrow=none;html=1;rounded=0;" parent="1" edge="1">
          <mxGeometry width="50" height="50" relative="1" as="geometry">
            <mxPoint x="130" y="763" as="sourcePoint" />
            <mxPoint x="160" y="763" as="targetPoint" />
          </mxGeometry>
        </mxCell>
        <mxCell id="5PLqkf-imeQKEsd1Dz64-3" value="vSLOTID_Init" style="rounded=0;whiteSpace=wrap;html=1;" parent="1" vertex="1">
          <mxGeometry x="161" y="790" width="170" height="35" as="geometry" />
        </mxCell>
        <mxCell id="5PLqkf-imeQKEsd1Dz64-4" value="" style="endArrow=none;html=1;rounded=0;" parent="1" edge="1">
          <mxGeometry width="50" height="50" relative="1" as="geometry">
            <mxPoint x="130" y="807" as="sourcePoint" />
            <mxPoint x="160" y="807" as="targetPoint" />
          </mxGeometry>
        </mxCell>
      </root>
    </mxGraphModel>
  </diagram>
  <diagram id="KUhRRgNS_XwqonvVdT_Z" name="IO - INPUT Initialize global variable">
    <mxGraphModel dx="1001" dy="633" grid="1" gridSize="10" guides="1" tooltips="1" connect="1" arrows="1" fold="1" page="1" pageScale="1" pageWidth="827" pageHeight="1169" math="0" shadow="0">
      <root>
        <mxCell id="0" />
        <mxCell id="1" parent="0" />
        <mxCell id="RVfooZvOZVZxV3mhTpIf-1" value="" style="rounded=0;whiteSpace=wrap;html=1;dashed=1;" parent="1" vertex="1">
          <mxGeometry x="80" y="70" width="290" height="260" as="geometry" />
        </mxCell>
        <mxCell id="RVfooZvOZVZxV3mhTpIf-2" value="&lt;div&gt;vChannel_Send01_Init&lt;/div&gt;" style="rounded=0;whiteSpace=wrap;html=1;" parent="1" vertex="1">
          <mxGeometry x="161" y="146" width="170" height="35" as="geometry" />
        </mxCell>
        <mxCell id="RVfooZvOZVZxV3mhTpIf-3" value="st_IN1_8_Init" style="rounded=0;whiteSpace=wrap;html=1;" parent="1" vertex="1">
          <mxGeometry x="161" y="188" width="170" height="35" as="geometry" />
        </mxCell>
        <mxCell id="RVfooZvOZVZxV3mhTpIf-4" value="vDisplayFnd_Init" style="rounded=0;whiteSpace=wrap;html=1;" parent="1" vertex="1">
          <mxGeometry x="161" y="230" width="170" height="35" as="geometry" />
        </mxCell>
        <mxCell id="RVfooZvOZVZxV3mhTpIf-5" value="vLEDRunFail_Init" style="rounded=0;whiteSpace=wrap;html=1;" parent="1" vertex="1">
          <mxGeometry x="161" y="273" width="170" height="35" as="geometry" />
        </mxCell>
        <mxCell id="RVfooZvOZVZxV3mhTpIf-16" value="Initialize global variable" style="rounded=0;whiteSpace=wrap;html=1;" parent="1" vertex="1">
          <mxGeometry x="100" y="90" width="120" height="30" as="geometry" />
        </mxCell>
        <mxCell id="RVfooZvOZVZxV3mhTpIf-17" value="" style="endArrow=none;html=1;rounded=0;strokeWidth=2;" parent="1" edge="1">
          <mxGeometry width="50" height="50" relative="1" as="geometry">
            <mxPoint x="130" y="290" as="sourcePoint" />
            <mxPoint x="130" y="120" as="targetPoint" />
          </mxGeometry>
        </mxCell>
        <mxCell id="RVfooZvOZVZxV3mhTpIf-28" value="" style="endArrow=none;html=1;rounded=0;" parent="1" edge="1">
          <mxGeometry width="50" height="50" relative="1" as="geometry">
            <mxPoint x="130" y="292" as="sourcePoint" />
            <mxPoint x="160" y="292" as="targetPoint" />
          </mxGeometry>
        </mxCell>
        <mxCell id="RVfooZvOZVZxV3mhTpIf-29" value="" style="endArrow=none;html=1;rounded=0;" parent="1" edge="1">
          <mxGeometry width="50" height="50" relative="1" as="geometry">
            <mxPoint x="130" y="249" as="sourcePoint" />
            <mxPoint x="160" y="249" as="targetPoint" />
          </mxGeometry>
        </mxCell>
        <mxCell id="RVfooZvOZVZxV3mhTpIf-30" value="" style="endArrow=none;html=1;rounded=0;" parent="1" edge="1">
          <mxGeometry width="50" height="50" relative="1" as="geometry">
            <mxPoint x="130" y="206" as="sourcePoint" />
            <mxPoint x="160" y="206" as="targetPoint" />
          </mxGeometry>
        </mxCell>
        <mxCell id="RVfooZvOZVZxV3mhTpIf-31" value="" style="endArrow=none;html=1;rounded=0;" parent="1" edge="1">
          <mxGeometry width="50" height="50" relative="1" as="geometry">
            <mxPoint x="131" y="164" as="sourcePoint" />
            <mxPoint x="161" y="164" as="targetPoint" />
          </mxGeometry>
        </mxCell>
      </root>
    </mxGraphModel>
  </diagram>
</mxfile>
